<svg width="42" height="43" viewBox="0 0 42 43" fill="none" xmlns="http://www.w3.org/2000/svg">
<g clip-path="url(#clip0_6_4790)">
<path d="M20.7052 4.52406C20.1517 4.47513 19.592 4.44876 19.0258 4.44876C8.51818 4.44876 -1.29702e-06 13.0471 -8.34436e-07 23.6538C-0.000189719 34.2605 8.51799 42.859 19.0256 42.859C29.5333 42.859 38.0513 34.2605 38.0513 23.654C38.0513 17.3772 35.0679 11.8041 30.4548 8.29951L25.3608 12.9385C29.094 15.0543 31.5998 18.9792 31.5998 23.5993C31.5998 30.5533 25.9262 36.1906 18.9274 36.1906C11.9289 36.1906 6.2551 30.5533 6.2551 23.5993C6.2551 18.0542 9.86444 13.5102 14.875 11.8953L14.875 25.6404C14.875 25.6404 14.875 28.9308 18.4377 28.9308C19.7951 28.9308 20.7052 28.7049 20.7052 28.7049L20.7052 4.52406Z" fill="#005D94"/>
<path d="M37.3333 0.5C34.756 0.5 32.6667 2.58932 32.6667 5.1667C32.6667 7.74394 34.756 9.83333 37.3333 9.83333C39.9107 9.83333 42.0001 7.74402 42.0001 5.1667C42.0001 2.58932 39.9107 0.5 37.3333 0.5ZM37.3333 7.4431C36.0761 7.4431 35.0569 6.42389 35.0569 5.1667C35.0569 3.90944 36.0761 2.89024 37.3333 2.89024C38.5905 2.89024 39.6098 3.90944 39.6098 5.1667C39.6097 6.42389 38.5905 7.4431 37.3333 7.4431Z" fill="#F29600"/>
</g>
<defs>
<clipPath id="clip0_6_4790">
<rect width="42" height="42.359" fill="white" transform="translate(0 0.5)"/>
</clipPath>
</defs>
</svg>
