<svg width="45" height="42" viewBox="0 0 45 42" fill="none" xmlns="http://www.w3.org/2000/svg">
<g clip-path="url(#clip0_6_4789)">
<path d="M16.4979 21.5189C15.9197 16.1731 21.4401 11.8859 28.8302 11.9446C36.2181 12.0041 42.6812 16.3819 43.2594 21.7205C43.8383 27.067 38.3207 31.3492 30.9307 31.2919C23.5421 31.2375 17.0783 26.8582 16.4979 21.5189ZM44.633 23.1764C43.9655 16.5487 36.5283 11.1209 28.0247 11.0492C19.5154 10.9781 13.1638 16.2935 13.8328 22.9183C14.5003 29.5453 21.9368 34.9745 30.4418 35.047C38.9475 35.1159 45.3034 29.8019 44.633 23.1764Z" fill="#FBB584"/>
<path d="M31.792 35.1769C27.6059 39.6236 20.8777 39.989 16.7746 36.0012C12.6693 32.0171 12.7393 25.1856 16.9311 20.7454C21.1214 16.3044 27.8475 15.9361 31.9506 19.9217C36.0523 23.9088 35.9837 30.7417 31.792 35.1769ZM16.2714 20.6055C11.4014 25.7642 11.3221 33.705 16.0927 38.341C20.8627 42.9719 28.6816 42.5456 33.5494 37.3839C38.4201 32.223 38.5016 24.2815 33.7295 19.6469C28.9603 15.0153 21.1428 15.4424 16.2714 20.6055Z" fill="#F89B6C"/>
<path d="M16.7164 3.98211C25.4308 0.670796 34.0466 4.02127 35.9606 11.4654C37.8781 18.9153 32.3663 27.6399 23.6533 30.949C14.9382 34.2661 6.32101 30.9128 4.40774 23.4672C2.48804 16.0209 8.00343 7.29778 16.7164 3.98211ZM8.62307 6.83012C-0.416527 14.0901 -2.71717 24.6142 3.48219 30.3291C9.68298 36.0469 22.0381 34.7925 31.0806 27.5318C40.1209 20.2726 42.4244 9.75281 36.2207 4.03359C30.0171 -1.68345 17.6627 -0.432736 8.62307 6.83012Z" fill="#F37321"/>
</g>
<defs>
<clipPath id="clip0_6_4789">
<rect width="44.6813" height="42" fill="white"/>
</clipPath>
</defs>
</svg>
