<svg width="48" height="48" viewBox="0 0 48 48" fill="none" xmlns="http://www.w3.org/2000/svg">
<mask id="mask0_6_4791" style="mask-type:luminance" maskUnits="userSpaceOnUse" x="2" y="2" width="44" height="44">
<path d="M46 2.69067H2V45.3092H46V2.69067Z" fill="white"/>
</mask>
<g mask="url(#mask0_6_4791)">
<path d="M45.7445 17.9919C46.1595 16.7388 46.0601 15.3721 45.468 14.1922C44.8758 13.0123 43.8395 12.1158 42.5867 11.6996L16.5118 2.94607C15.8911 2.73543 15.2348 2.65057 14.581 2.69641C13.9272 2.74226 13.289 2.91791 12.7039 3.2131" fill="white"/>
<path d="M12.704 3.21313C11.5232 3.80404 10.6254 4.83964 10.2079 6.09228L2.25538 29.9962C1.84354 31.2494 1.94449 32.6148 2.53619 33.7938C3.12789 34.9728 4.16222 35.8698 5.41316 36.2885L31.4997 45.0421C32.1208 45.2502 32.7769 45.3337 33.4303 45.2879C34.0837 45.2421 34.7217 45.0678 35.3077 44.7751C35.8924 44.4845 36.4133 44.0801 36.8399 43.5858C37.2665 43.0914 37.5902 42.5169 37.7921 41.8959L45.7562 17.992" fill="white"/>
<path d="M25.4627 26.1767C24.0272 27.7853 22.2337 29.034 20.2268 29.822L19.0659 30.2748V19.1993L20.2268 19.6521C22.2363 20.436 24.0336 21.6807 25.4743 23.2859C26.3861 21.7942 26.961 20.1214 27.1589 18.3843C27.3568 16.6473 27.1729 14.888 26.62 13.2294C26.0672 11.5709 25.1587 10.0531 23.9582 8.78222C22.7576 7.51132 21.294 6.518 19.6696 5.87169L15.8616 4.57143C15.4584 4.43911 15.033 4.3876 14.6099 4.41987C14.1867 4.45214 13.7741 4.56756 13.3956 4.75951C13.0171 4.95146 12.6801 5.21617 12.4041 5.5385C12.128 5.86082 11.9182 6.23442 11.7867 6.63792L3.81102 30.5651C3.55062 31.3888 3.62511 32.2819 4.0184 33.0511C4.41169 33.8203 5.09211 34.4036 5.91234 34.6748L24.0115 40.7118C25.8167 38.7843 26.9351 36.3148 27.1933 33.6866C27.4515 31.0585 26.835 28.4186 25.4395 26.1767H25.4627ZM14.9909 18.5376V30.9598H13.1915V18.5724L14.9909 18.5376Z" fill="#2293C8"/>
<path d="M24.4179 24.7255C23.3985 23.5349 22.1612 22.5498 20.7725 21.8231V27.6278C22.1671 26.8952 23.4054 25.8975 24.4179 24.6906" fill="#E43D30"/>
<path d="M42.018 13.2901L25.4048 7.74072C27.4916 10.0227 28.7426 12.9451 28.9535 16.0302C29.1644 19.1153 28.3226 22.1807 26.5657 24.7254C28.2729 27.1942 29.1205 30.1559 28.9778 33.154C28.8351 36.1521 27.7101 39.02 25.7763 41.3154L32.0222 43.3935C32.4253 43.5274 32.851 43.5801 33.2747 43.5486C33.6984 43.5171 34.1116 43.4019 34.4904 43.2098C34.8693 43.0176 35.2064 42.7523 35.4822 42.4292C35.7579 42.106 35.9669 41.7314 36.0971 41.327L44.1077 17.4115C44.3718 16.5893 44.3003 15.6961 43.9089 14.9264C43.5175 14.1566 42.8379 13.5727 42.018 13.3017V13.2901ZM37.618 30.9365H35.3657L30.7219 24.7254L35.3657 18.526H37.6876L33.0438 24.7487L37.618 30.9365Z" fill="#215C9C"/>
</g>
</svg>
