<svg width="46" height="46" viewBox="0 0 46 46" fill="none" xmlns="http://www.w3.org/2000/svg">
<path d="M45.2052 23.4539L44.8106 23.1745C44.0389 22.3966 43.1225 21.8161 42.1263 21.4738C41.13 21.1316 40.0781 21.036 39.0448 21.1938C37.2461 21.3585 35.513 22.0184 34.0026 23.1136V23.0165C34.0167 22.2525 34.0679 21.49 34.156 20.732C34.2218 19.9422 34.2985 19.1525 34.2985 18.399C34.3218 17.6777 34.2137 16.9587 33.9806 16.2847C33.9527 16.205 33.9027 16.1373 33.8375 16.0913C33.7725 16.0455 33.6959 16.0238 33.6189 16.0296C32.7964 16.1153 32.0019 16.4061 31.2951 16.8801L31.1197 17.2933C31.1167 18.4497 31.0028 19.6024 30.7799 20.732C30.7556 20.831 30.7264 20.9284 30.6922 21.0237C30.4184 23.932 30.4184 26.8642 30.6922 29.7725C30.6922 30.0156 31.1636 30.3923 31.4924 30.5381C32.2455 30.5586 32.9936 30.3968 33.6847 30.0642H33.9367C33.987 30.0569 34.0354 30.0383 34.079 30.0096C34.1226 29.9808 34.1604 29.9426 34.1902 29.897C34.2198 29.8515 34.241 29.7998 34.252 29.745C34.2631 29.6901 34.2641 29.6334 34.2547 29.5782V28.8612C34.5546 27.6139 35.1513 26.4788 35.9824 25.5747C36.8135 24.6705 37.8484 24.0303 38.9791 23.7213C39.5441 23.5856 40.1315 23.6176 40.6819 23.8138C41.2323 24.0101 41.7263 24.3638 42.1141 24.8391C42.3651 26.0472 42.1802 27.3161 41.5989 28.3751C40.7801 29.8612 39.5086 30.9732 38.0144 31.5101C36.2587 32.2037 34.3938 32.4931 32.5337 32.3608C32.435 32.3 30.5059 30.8541 30.5059 30.8541C28.7225 29.3442 26.7878 28.068 24.7401 27.0507C24.2695 26.7596 23.8285 26.4134 23.4247 26.0178L23.2384 25.8356C22.1422 24.8392 20.0047 23.2838 18.3057 22.0322L17.3959 21.3396V21.1331C17.3959 21.0723 18.492 20.3675 18.492 20.3675C19.3257 19.9112 20.106 19.3439 20.8159 18.6785L21.0241 18.5448L24.7291 16.2119C28.2806 14.0489 32.3145 11.5944 34.4301 9.16412L34.5287 8.7874V8.45932C34.6543 8.0122 34.6543 7.53339 34.5287 7.08629C34.5149 7.00822 34.4804 6.93648 34.4296 6.88022C34.3789 6.82395 34.3141 6.78572 34.2437 6.77034C32.5885 6.58807 30.462 7.68169 28.5218 9.69878C28.163 10.065 27.761 10.3756 27.3271 10.6223L27.0311 10.7924C24.8388 12.1412 20.0706 15.4584 17.5493 17.2568C17.7877 13.6114 18.2159 9.98433 18.8319 6.39366L18.766 5.96836L18.503 5.43371L18.3057 5.04485C17.9261 4.83966 17.4888 4.80911 17.089 4.95982L16.5848 5.16638L15.9161 5.43371C15.8523 5.44873 15.793 5.48099 15.7433 5.52763C15.6935 5.57428 15.655 5.63385 15.6311 5.70103C14.2657 9.80946 13.4424 14.1149 13.1866 18.4841C11.3386 17.1987 9.42844 16.0264 7.46478 14.9724H7.33324C6.85319 14.8397 6.39967 14.609 5.99594 14.2919L5.08613 13.6357L3.68307 12.6394L3.31037 12.5421C2.49295 12.8286 1.76651 13.3683 1.21672 14.0975C1.17488 14.1747 1.1522 14.2627 1.15096 14.3527C1.16123 14.4764 1.18327 14.5987 1.21672 14.7173L1.2825 15.0331L1.34827 15.2276C2.59143 16.3833 3.95708 17.3667 5.41498 18.156L7.33324 19.2861L10.2818 21.0602L10.7861 21.5098L11.1259 21.7285H11.1917C10.4025 22.2996 5.84248 25.6898 5.84248 25.6898L2.97057 27.8769C2.44423 28.1968 1.90268 28.4848 1.34827 28.7397C0.8151 28.9467 0.364843 29.3554 0.076726 29.894L0 30.0763L0.076726 30.1978L0.295968 30.3801L0.58096 30.5867L0.898841 30.8175L1.18384 30.8783C2.09632 30.7411 2.9775 30.4155 3.78172 29.9184C5.04229 29.2986 8.46223 27.0142 9.9311 26.0422L10.556 25.6169C10.8533 25.5723 11.1298 25.4232 11.3452 25.1915C11.7587 24.8527 12.1989 24.5558 12.6606 24.3045C12.6606 24.3045 12.9017 24.1587 13.1099 24.0371V24.2316C13.0844 28.0336 13.3558 31.8308 13.9211 35.5808V35.7023C14.2597 36.5353 14.5134 37.4074 14.6775 38.3026L15.2255 40.3684L15.3899 40.5629C15.9722 40.9495 16.6405 41.1474 17.3191 41.134H17.4836L17.5823 40.8787C17.6364 40.5665 17.6621 40.2489 17.659 39.9309C17.659 39.5543 17.659 39.1412 17.659 38.6308V37.8896C17.4507 34.4264 17.2534 29.3837 17.2534 26.1029V25.8356L20.1034 27.8284C24.0496 30.6596 29.9687 34.9611 33.6189 36.0911C33.7096 36.1211 33.8056 36.1246 33.8978 36.1011C33.9901 36.0778 34.0753 36.0282 34.1451 35.9575L34.7041 35.5687H34.8028C34.9259 35.458 35.024 35.3168 35.0887 35.1563C35.1534 34.9959 35.1832 34.8207 35.1754 34.6452C38.2118 34.4873 42.4539 33.1871 44.7229 30.0278C45.5335 28.8827 45.9804 27.4732 45.9944 26.0178C46.0429 25.1308 45.7753 24.2581 45.2491 23.5876" fill="#FCAF17"/>
</svg>
