<svg width="48" height="48" viewBox="0 0 48 48" fill="none" xmlns="http://www.w3.org/2000/svg">
<mask id="mask0_7_55763" style="mask-type:luminance" maskUnits="userSpaceOnUse" x="8" y="4" width="32" height="40">
<path d="M40 4.23938H8V43.7608H40V4.23938Z" fill="white"/>
</mask>
<g mask="url(#mask0_7_55763)">
<path d="M31.7948 4.23938L24 8.15961L16.2051 4.23938L24 19.0542L31.7948 4.23938Z" fill="#FFB71B"/>
<path d="M34.5761 15.639L40.1374 13.3142V5.47375L30.4736 9.62192L25.0945 19.7416C27.1639 19.9801 29.0636 21.0011 30.4044 22.5952C31.7453 24.1893 32.4257 26.2358 32.3062 28.3154C32.1867 30.395 31.2764 32.3502 29.7619 33.7803C28.2473 35.2104 26.2432 36.0071 24.1601 36.0071C22.0771 36.0071 20.073 35.2104 18.5584 33.7803C17.0438 32.3502 16.1335 30.395 16.014 28.3154C15.8946 26.2358 16.5749 24.1893 17.9157 22.5952C19.2565 21.0011 21.1563 19.9801 23.2256 19.7416L17.8467 9.62192L8.22852 5.47375V13.3142L13.8809 15.639C11.4294 17.7819 9.69014 20.6216 8.89514 23.779C8.10015 26.9364 8.28727 30.2612 9.4317 33.3094C10.5761 36.3576 12.6233 38.9842 15.2998 40.8383C17.9764 42.6923 21.1548 43.6857 24.4108 43.6857C27.6668 43.6857 30.8453 42.6923 33.5218 40.8383C36.1983 38.9842 38.2455 36.3576 39.3899 33.3094C40.5343 30.2612 40.7216 26.9364 39.9266 23.779C39.1316 20.6216 37.3922 17.7819 34.9407 15.639H34.5761Z" fill="#FFB71B"/>
</g>
</svg>
