<svg width="48" height="48" viewBox="0 0 48 48" fill="none" xmlns="http://www.w3.org/2000/svg">
<mask id="mask0_7_55783" style="mask-type:luminance" maskUnits="userSpaceOnUse" x="9" y="2" width="30" height="44">
<path d="M38.2831 2H9.71704V46H38.2831V2Z" fill="white"/>
</mask>
<g mask="url(#mask0_7_55783)">
<path fill-rule="evenodd" clip-rule="evenodd" d="M18.4029 44.5048C17.4239 45.1684 16.2795 45.5464 15.0978 45.5967C13.7216 45.5717 12.4055 45.0278 11.4133 44.0738C10.421 43.1198 9.82572 41.8263 9.74658 40.4521L15.2945 37.1567L23.9017 41.0127L18.4029 44.5048Z" fill="#72A3B6"/>
<path fill-rule="evenodd" clip-rule="evenodd" d="M21.6785 30.3201L17.5667 28.5102C15.7272 27.7035 13.996 27.0051 13.996 24.9886C13.9688 24.5957 14.0268 24.2016 14.166 23.8332C14.3052 23.4647 14.5224 23.1307 14.8026 22.854L23.4885 26.6707L21.3539 27.9298C20.7539 28.2839 20.3702 28.6085 20.3702 29.0709C20.3702 29.5332 20.9309 29.9857 21.708 30.3201H21.6785Z" fill="#96CE8E"/>
<path fill-rule="evenodd" clip-rule="evenodd" d="M25.7118 11.3451L21.4918 13.9125C21.118 14.1387 20.6065 14.4928 20.6065 15.0634C20.6065 15.6339 21.5902 16.1848 22.446 16.5979L17.1833 14.2764C15.6389 13.5878 14.0749 12.8206 14.0749 10.9418C14.0643 10.2408 14.2704 9.55372 14.6651 8.97436L26.0757 2.00989C26.8744 2.44899 27.5426 3.09163 28.0126 3.87254C28.4825 4.65345 28.7374 5.54484 28.7513 6.45614C28.7583 7.47878 28.4768 8.48266 27.9391 9.3526C27.4015 10.2226 26.6295 10.9234 25.7118 11.3746V11.3451Z" fill="#72A3B6"/>
<path fill-rule="evenodd" clip-rule="evenodd" d="M34.6729 19.5686L33.6302 20.1686L24.905 16.3224L35.0369 10.2137C35.8379 10.6553 36.5091 11.2991 36.9838 12.081C37.4584 12.8628 37.7198 13.7554 37.742 14.6698C37.7582 15.6981 37.4772 16.7092 36.9328 17.5816C36.3884 18.4541 35.6037 19.1508 34.6729 19.5882V19.5686Z" fill="#96CE8E"/>
<path fill-rule="evenodd" clip-rule="evenodd" d="M27.3052 26.9856L32.4696 29.248C34.4369 30.1137 34.9976 31.1367 34.9976 32.4155C34.9806 32.794 34.8842 33.1647 34.7148 33.5037C34.5453 33.8426 34.3066 34.1421 34.0139 34.3828L25.3477 30.5268L26.8036 29.7202C28.043 29.0218 28.466 28.6185 28.466 28.166C28.466 27.7135 28.1611 27.3889 27.3151 26.9954L27.3052 26.9856Z" fill="#72A3B6"/>
<path fill-rule="evenodd" clip-rule="evenodd" d="M36.5222 46C34.2272 44.3453 31.7441 42.9684 29.125 41.8981L16.0027 36.0648C12.6975 34.5893 10.5039 32.6416 10.5039 29.3365C10.5039 26.0313 12.0581 24.5755 14.0747 23.2967L14.8026 22.854C14.5223 23.1307 14.3052 23.4647 14.166 23.8332C14.0268 24.2016 13.9688 24.5957 13.996 24.9886C13.996 27.0051 15.7272 27.7035 17.5667 28.5102L32.8334 35.2385C35.5091 36.3894 37.9289 38.3568 37.9289 41.6817C37.9619 43.2388 37.466 44.761 36.5222 46Z" fill="#4C9847"/>
<path fill-rule="evenodd" clip-rule="evenodd" d="M34.9483 33.7728L33.9647 34.3729C34.2573 34.1321 34.496 33.8326 34.6655 33.4937C34.8349 33.1548 34.9313 32.784 34.9483 32.4055C34.9483 31.1267 34.3483 30.1037 32.4203 29.2381L16.0912 22.0671C12.786 20.5817 10.7302 18.7029 10.7302 15.4174C10.7193 14.0867 11.0765 12.7789 11.7622 11.6384C12.4478 10.4979 13.4354 9.56915 14.6157 8.95459C14.221 9.53395 14.0149 10.221 14.0255 10.9219C14.0255 12.8008 15.5895 13.5681 17.1339 14.2566L33.0007 21.2604C35.9025 22.5491 38.2437 24.4967 38.2437 27.9986C38.2773 29.1741 37.9819 30.3356 37.391 31.3523C36.8001 32.369 35.9371 33.2005 34.8991 33.7532L34.9483 33.7728Z" fill="#296085"/>
</g>
</svg>
