<svg width="160" height="20" viewBox="0 0 160 20" fill="none" xmlns="http://www.w3.org/2000/svg">
<g clip-path="url(#clip0_796_4368)">
<path d="M47.8683 5.62647C48.1816 5.90689 48.4272 6.23405 48.6052 6.60436C48.8046 6.99983 48.9078 7.40968 48.9078 7.8375C48.9078 8.95201 48.4913 9.86519 47.6547 10.5734C46.8644 11.2601 45.9103 11.6017 44.796 11.6017C43.6817 11.6017 42.7383 11.2601 41.9372 10.5734C41.0899 9.8544 40.6663 8.94123 40.6663 7.8375C40.6663 7.40968 40.7482 7.00342 40.9155 6.62233C41.0721 6.2736 41.3071 5.94284 41.6168 5.62647H40.0967V3.92235H43.7422V2.55618H45.8497V3.92235H49.4276V5.62647H47.8719H47.8683ZM41.1967 12.5831H43.1512V15.808H53.8172V17.5481H42.3502C41.9586 17.5481 41.6773 17.451 41.4993 17.2605C41.3 17.0591 41.1967 16.732 41.1967 16.2826V12.5867V12.5831ZM43.2687 6.37067C42.8451 6.77693 42.635 7.26587 42.635 7.8411C42.635 8.41633 42.8451 8.8873 43.2687 9.29355C43.6923 9.69981 44.1943 9.90114 44.7746 9.90114C45.3549 9.90114 45.8319 9.69981 46.2805 9.29355C46.7469 8.87651 46.9818 8.39476 46.9818 7.8411C46.9818 7.28744 46.7469 6.77693 46.2805 6.37067C45.8462 5.98958 45.3442 5.79544 44.7746 5.79544C44.205 5.79544 43.6923 5.98599 43.2687 6.37067ZM53.6997 8.76866V12.9894H51.7452V3.34712H53.6997V7.01061H55.672V8.76506H53.6997V8.76866Z" fill="#27286B"/>
<path d="M62.2902 9.92988H56.1562V8.17543H70.5176V9.92988H64.2162V12.7161H62.2938V9.92988H62.2902ZM67.8404 8.35878V5.08357H56.6547V3.34351H69.7949V8.35878H67.8404ZM67.8404 13.9457H56.6547V12.2056H69.7949V17.6236H67.8404V13.9421V13.9457Z" fill="#27286B"/>
<path d="M86.6587 13.0146C86.6587 13.5323 86.5946 13.996 86.4629 14.4059C86.3348 14.8193 86.1639 15.1825 85.9503 15.4952C85.7367 15.8116 85.4875 16.0777 85.2027 16.3006C84.9179 16.5235 84.6224 16.7032 84.3162 16.8434C84.01 16.9836 83.7003 17.0879 83.387 17.1562C83.0737 17.2245 82.7747 17.2569 82.497 17.2569H72.5146V14.6432H82.497C82.9954 14.6432 83.3799 14.4958 83.6576 14.201C83.9317 13.9062 84.0706 13.5107 84.0706 13.0146C84.0706 12.7737 84.035 12.5508 83.9602 12.353C83.8854 12.1517 83.7822 11.9791 83.6469 11.8317C83.5116 11.6843 83.3443 11.5693 83.1485 11.4902C82.9527 11.4111 82.7355 11.368 82.497 11.368H76.5446C76.1281 11.368 75.6759 11.2925 75.1918 11.1415C74.7076 10.9905 74.259 10.746 73.8425 10.4116C73.426 10.0773 73.0842 9.63868 72.8065 9.09581C72.5324 8.55294 72.3936 7.89142 72.3936 7.10767C72.3936 6.32392 72.5324 5.66241 72.8065 5.12313C73.0806 4.58385 73.426 4.14524 73.8425 3.8073C74.2555 3.46935 74.7076 3.22488 75.1918 3.07388C75.6759 2.92288 76.1281 2.84738 76.5446 2.84738H85.3522V5.46108H76.5446C76.0533 5.46108 75.6688 5.61208 75.3947 5.91407C75.1206 6.21607 74.9817 6.61513 74.9817 7.11127C74.9817 7.6074 75.1206 8.01006 75.3947 8.30127C75.6688 8.59248 76.0533 8.73989 76.5446 8.73989H82.5148C82.7925 8.74708 83.088 8.78662 83.4013 8.85493C83.7146 8.92683 84.0243 9.03469 84.3305 9.18209C84.6402 9.3295 84.9321 9.51644 85.2098 9.73935C85.4875 9.96584 85.7367 10.2319 85.9503 10.5483C86.1674 10.8646 86.3383 11.2242 86.4629 11.634C86.5875 12.0439 86.6516 12.504 86.6516 13.0217L86.6587 13.0146Z" fill="#27286B"/>
<path d="M101.554 5.45748H95.8512V17.2569H93.2631V5.45748H87.5527V2.84378H101.554V5.45748Z" fill="#27286B"/>
<path d="M111.95 3.34711V4.81754C111.95 8.41991 111.003 11.048 109.109 12.7018C107.77 13.8846 106.051 14.5245 103.943 14.6252V12.7018C105.962 12.6335 107.482 11.9072 108.507 10.5231C109.476 9.21804 109.963 7.40607 109.963 5.08718H104.161V3.34711H111.95ZM115.126 7.73683V3.34711H117.08V17.6308H115.126V9.47689H110.661V7.73683H115.126Z" fill="#27286B"/>
<path d="M124.717 5.08718H120.035V3.34711H126.571V9.54161H121.872V12.6658H128.327V14.4059H121.206C120.815 14.4059 120.526 14.3088 120.338 14.1183C120.138 13.9169 120.035 13.5718 120.035 13.0901V7.82311H124.717V5.08718ZM131.321 9.64587H129.783V17.6308H127.978V3.34711H129.783V7.9058H131.321V3.34711H133.175V17.6308H131.321V9.64587Z" fill="#27286B"/>
<path d="M139.22 18.9466C137.938 18.4181 137.023 17.4223 136.478 15.959C135.966 14.6324 135.72 12.7952 135.742 10.4548C135.742 8.17185 136.019 6.35987 136.578 5.01887C137.148 3.64551 138.027 2.71795 139.22 2.2326V4.51195C138.597 4.88225 138.152 5.7451 137.881 7.09329C137.703 8.02804 137.614 9.16052 137.614 10.4871C137.603 11.8389 137.685 12.9858 137.863 13.9313C138.13 15.3514 138.582 16.2682 139.216 16.6816V18.943L139.22 18.9466Z" fill="#27286B"/>
<path d="M146.885 17.6991V13.0397H140.801V11.2853H154.945V13.0397H148.825V17.6991H146.885ZM149.16 5.10516C149.192 6.01833 149.733 6.67985 150.783 7.09689C151.609 7.41326 152.827 7.59662 154.443 7.65414V9.37623C153.015 9.33309 151.833 9.20007 150.897 8.98795C149.437 8.65001 148.43 8.09275 147.871 7.31619C147.312 8.09275 146.287 8.65001 144.795 8.98795C143.848 9.20007 142.684 9.33309 141.299 9.37623V7.65414C142.905 7.611 144.126 7.42405 144.959 7.09689C146.006 6.67985 146.547 6.01474 146.582 5.10516H141.299V3.35071H154.439V5.10516H149.156H149.16Z" fill="#27286B"/>
<path d="M157.846 14.0356C158.035 13.0685 158.131 11.9144 158.131 10.5734C158.12 9.25758 158.024 8.1251 157.846 7.17956C157.579 5.82778 157.138 4.96853 156.525 4.59822V2.31888C157.718 2.81501 158.597 3.74257 159.167 5.10514C159.726 6.44615 160.004 8.25812 160.004 10.5411C160.004 12.824 159.754 14.7187 159.252 16.0453C158.693 17.5085 157.786 18.5116 156.529 19.0509V16.7895C157.152 16.3724 157.593 15.4557 157.85 14.0392L157.846 14.0356Z" fill="#27286B"/>
<path d="M25.5828 2.89772H10.2709L7.37305 0H22.6849L25.5828 2.89772Z" fill="#313082"/>
<path d="M10.374 7.39889H0L7.36933 0H17.7434L10.374 7.39889Z" fill="#4F57A6"/>
<path d="M7.34413 14.805L0.00683594 7.3989H10.3737L17.7324 14.8373L7.34413 14.805Z" fill="#3C3A8F"/>
<path d="M9.50586 17.1023H24.7679L27.6658 20H12.4038L9.50586 17.1023Z" fill="#1A134A"/>
<path d="M24.7141 12.6011H35.0881L27.7223 20H17.3447L24.7141 12.6011Z" fill="#27286B"/>
<path d="M27.7652 5.2238L35.1025 12.6335L24.7142 12.6011L17.377 5.19504L27.7652 5.2238Z" fill="#414099"/>
</g>
<defs>
<clipPath id="clip0_796_4368">
<rect width="160" height="20" fill="white"/>
</clipPath>
</defs>
</svg>
