<?xml version="1.0" encoding="utf-8"?>
<!-- Generator: Adobe Illustrator 28.0.0, SVG Export Plug-In . SVG Version: 6.00 Build 0)  -->
<svg version="1.1" id="Layer_1" xmlns="http://www.w3.org/2000/svg" xmlns:xlink="http://www.w3.org/1999/xlink" x="0px" y="0px"
	 viewBox="0 0 1280 169" style="enable-background:new 0 0 1280 169;" xml:space="preserve">
<style type="text/css">
	.st0{fill:#27286B;}
	.st1{fill:#313082;}
	.st2{fill:#4F56A4;}
	.st3{fill:#3C3A8E;}
	.st4{fill:#1A134A;}
	.st5{fill:#403F98;}
</style>
<g>
	<path class="st0" d="M348.9,104.3h-15.5v28.9c0,3.5,0.8,6.1,2.4,7.7c1.4,1.5,3.7,2.2,6.7,2.2h90.6v-13.6h-84.3V104.3z"/>
	<polygon class="st0" points="432.2,32 416.8,32 416.8,107.4 432.2,107.4 432.2,74.4 447.8,74.4 447.8,60.7 432.2,60.7 	"/>
	<path class="st0" d="M329.2,67.1c0,8.6,3.3,15.8,10,21.4c6.3,5.4,13.9,8.1,22.6,8.1c8.8,0,16.3-2.7,22.6-8.1
		c6.6-5.5,9.9-12.7,9.9-21.4c0-3.3-0.8-6.6-2.4-9.6c-1.4-2.9-3.3-5.5-5.8-7.7h12.3V36.5h-28.3V25.8h-16.6v10.7h-28.8v13.3h12
		c-2.5,2.5-4.3,5.1-5.5,7.8C329.8,60.6,329.2,63.8,329.2,67.1z M349.8,55.6c3.3-3,7.3-4.5,11.9-4.5c4.5,0,8.5,1.5,11.9,4.5
		c3.7,3.2,5.5,7,5.5,11.5c0,4.3-1.8,8.1-5.5,11.4c-3.5,3.2-7.5,4.8-11.9,4.8c-4.6,0-8.5-1.6-11.9-4.8c-3.3-3.2-5-7-5-11.4
		C344.8,62.6,346.4,58.8,349.8,55.6z"/>
	<polygon class="st0" points="559.4,32 455.5,32 455.5,45.6 543.9,45.6 543.9,69.8 451.6,69.8 451.6,83.5 500.1,83.5 500.1,101.4 
		455.5,101.4 455.5,115 543.9,115 543.9,143.8 559.4,143.8 559.4,101.4 515.2,101.4 515.2,83.5 565,83.5 565,69.8 559.4,69.8 	"/>
	<path class="st0" d="M687.1,88.3c-1.7-2.5-3.7-4.6-5.9-6.3c-2.2-1.8-4.5-3.2-7-4.4c-2.4-1.2-4.9-2-7.4-2.6c-2.5-0.6-4.8-0.9-7-0.9
		h-0.2h-47c-3.9,0-6.9-1.1-9.1-3.4c-2.2-2.3-3.3-5.4-3.3-9.3c0-3.9,1.1-7,3.3-9.4c2.2-2.4,5.2-3.5,9.1-3.5h69.6V28.1h-69.6
		c-3.3,0-6.9,0.6-10.7,1.8c-3.8,1.2-7.4,3.1-10.7,5.7c-3.3,2.6-6,6.1-8.2,10.3c-2.2,4.2-3.3,9.4-3.3,15.5c0,6.1,1.1,11.3,3.3,15.6
		c2.2,4.2,4.9,7.7,8.2,10.3c3.3,2.6,6.8,4.5,10.7,5.7c3.8,1.2,7.4,1.8,10.7,1.8h47c1.9,0,3.6,0.3,5.1,0.9c1.5,0.6,2.9,1.5,3.9,2.7
		c1.1,1.2,1.9,2.5,2.5,4.1c0.6,1.6,0.9,3.3,0.9,5.2c0,3.9-1.1,7-3.3,9.3s-5.2,3.5-9.2,3.5h-78.9v20.4h78.9c2.2,0,4.5-0.3,7-0.8
		c2.5-0.5,4.9-1.3,7.4-2.4c2.4-1.1,4.7-2.5,7-4.2c2.3-1.7,4.2-3.8,5.9-6.3c1.7-2.5,3-5.3,4-8.5c1-3.2,1.5-6.9,1.5-10.9
		c0-4-0.5-7.7-1.5-10.9C690.1,93.6,688.8,90.8,687.1,88.3z"/>
	<polygon class="st0" points="699.7,48.5 744.8,48.5 744.8,140.8 765.2,140.8 765.2,48.5 810.3,48.5 810.3,28.1 699.7,28.1 	"/>
	<path class="st0" d="M917.5,66.3h-27.1c1.3-7,2-14.6,2-22.9V32h-61.6v13.6h45.8c0,18.1-3.8,32.3-11.5,42.5
		c-8.1,10.8-20.1,16.5-36.1,17v15.1c16.6-0.8,30.2-5.8,40.8-15.1c7.5-6.5,13.1-14.9,16.9-25.2h30.7v63.8H933V32h-15.5V66.3z"/>
	<path class="st0" d="M1045.5,67.7h-12.2V32h-14.3v72.9h-48.2V80.5h37.1V32h-51.6v13.6h37V67h-37v41.2c0,3.8,0.8,6.5,2.4,8.1
		c1.5,1.5,3.8,2.2,6.9,2.2h53.5v25.2h14.3V81.3h12.2v62.5h14.7V32h-14.7V67.7z"/>
	<path class="st0" d="M1087,45.1c-4.4,10.5-6.6,24.7-6.6,42.5c-0.2,18.3,1.8,32.7,5.8,43.1c4.3,11.4,11.5,19.2,21.7,23.4v-17.7
		c-5-3.3-8.6-10.4-10.7-21.5c-1.4-7.4-2.1-16.4-2-26.9c0-10.4,0.7-19.2,2.1-26.6c2.1-10.6,5.6-17.3,10.6-20.2V23.3
		C1098.5,27.1,1091.5,34.3,1087,45.1z"/>
	<path class="st0" d="M1176.3,63c4.4,6.1,12.4,10.4,23.9,13.1c7.4,1.7,16.7,2.7,28,3V65.7c-12.8-0.4-22.4-1.9-28.9-4.4
		c-8.3-3.3-12.5-8.5-12.8-15.6h41.7V32h-103.8v13.7h41.7c-0.3,7.1-4.5,12.3-12.8,15.6c-6.6,2.6-16.2,4-28.9,4.4v13.5
		c10.9-0.4,20.1-1.4,27.6-3C1163.8,73.5,1171.9,69.1,1176.3,63z"/>
	<polygon class="st0" points="1120.4,107.8 1168.5,107.8 1168.5,144.3 1183.8,144.3 1183.8,107.8 1232.1,107.8 1232.1,94.1 
		1120.4,94.1 	"/>
	<path class="st0" d="M1265.5,45.7c-4.5-10.7-11.4-17.9-20.9-21.8v17.8c4.8,2.9,8.3,9.6,10.4,20.2c1.4,7.4,2.2,16.2,2.2,26.6
		c0,10.5-0.7,19.5-2.2,27.1c-2,11.1-5.5,18.3-10.4,21.5v17.7c10-4.2,17.1-12.1,21.5-23.5c4-10.4,5.9-24.7,5.9-43.1
		C1272.1,70.4,1269.9,56.2,1265.5,45.7z"/>
</g>
<g>
	<polygon class="st1" points="210,28.5 89.1,28.5 66.1,5.8 187.1,5.8 	"/>
	<polygon class="st2" points="89.9,63.7 7.9,63.7 66.1,5.8 148.1,5.8 	"/>
	<polygon class="st3" points="65.9,121.7 8,63.7 89.9,63.7 148,121.9 	"/>
	<polygon class="st4" points="83,139.6 203.6,139.6 226.5,162.3 105.9,162.3 	"/>
	<polygon class="st0" points="203.2,104.4 285.1,104.4 226.9,162.3 144.9,162.3 	"/>
	<polygon class="st5" points="227.3,46.7 285.2,104.7 203.2,104.4 145.2,46.5 	"/>
</g>
</svg>
