<svg width="154" height="25" viewBox="0 0 154 25" fill="none" xmlns="http://www.w3.org/2000/svg">
<path d="M55.0131 6.46628C55.3732 6.78856 55.6555 7.16455 55.86 7.59012C56.0892 8.04462 56.2078 8.51564 56.2078 9.00732C56.2078 10.2882 55.7291 11.3376 54.7676 12.1516C53.8593 12.9408 52.7628 13.3333 51.4822 13.3333C50.2016 13.3333 49.1174 12.9408 48.1968 12.1516C47.2231 11.3253 46.7362 10.2758 46.7362 9.00732C46.7362 8.51564 46.8303 8.04875 47.0226 7.61078C47.2026 7.21 47.4726 6.82988 47.8286 6.46628H46.0815V4.50782H50.2712V2.93774H52.6933V4.50782H56.8051V6.46628H55.0172H55.0131ZM47.3458 14.4613H49.592V18.1675H61.8499V20.1673H48.6714C48.2214 20.1673 47.8981 20.0557 47.6936 19.8367C47.4644 19.6053 47.3458 19.2293 47.3458 18.7129V14.4654V14.4613ZM49.727 7.32156C49.2401 7.78845 48.9987 8.35037 48.9987 9.01146C48.9987 9.67254 49.2401 10.2138 49.727 10.6807C50.2139 11.1476 50.7908 11.379 51.4577 11.379C52.1246 11.379 52.6728 11.1476 53.1883 10.6807C53.7243 10.2014 53.9943 9.64775 53.9943 9.01146C53.9943 8.37516 53.7243 7.78845 53.1883 7.32156C52.6892 6.88359 52.1123 6.66048 51.4577 6.66048C50.803 6.66048 50.2139 6.87946 49.727 7.32156ZM61.7149 10.0775V14.9282H59.4687V3.84674H61.7149V8.05702H63.9815V10.0733H61.7149V10.0775Z" fill="white"/>
<path d="M71.5876 11.4119H64.5381V9.39564H81.0429V11.4119H73.8011V14.6141H71.5917V11.4119H71.5876ZM77.9661 9.60636V5.84231H65.1109V3.84253H80.2123V9.60636H77.9661ZM77.9661 16.0271H65.1109V14.0274H80.2123V20.2539H77.9661V16.023V16.0271Z" fill="white"/>
<path d="M99.5933 14.957C99.5933 15.552 99.5196 16.085 99.3683 16.556C99.221 17.0312 99.0246 17.4485 98.7791 17.8079C98.5336 18.1715 98.2472 18.4773 97.9199 18.7334C97.5926 18.9896 97.253 19.1962 96.9011 19.3573C96.5493 19.5185 96.1933 19.6383 95.8333 19.7168C95.4732 19.7953 95.1295 19.8325 94.8104 19.8325H83.3381V16.8287H94.8104C95.3832 16.8287 95.8251 16.6593 96.1442 16.3205C96.4593 15.9817 96.6188 15.5272 96.6188 14.957C96.6188 14.6802 96.5779 14.424 96.492 14.1968C96.4061 13.9654 96.2874 13.7671 96.1319 13.5976C95.9765 13.4282 95.7842 13.296 95.5591 13.2051C95.3341 13.1142 95.0845 13.0647 94.8104 13.0647H87.9696C87.4909 13.0647 86.9713 12.9779 86.4148 12.8043C85.8584 12.6308 85.3429 12.3499 84.8642 11.9656C84.3855 11.5813 83.9927 11.0773 83.6736 10.4534C83.3585 9.82947 83.199 9.06922 83.199 8.16849C83.199 7.26777 83.3585 6.50752 83.6736 5.88775C83.9886 5.26799 84.3855 4.76391 84.8642 4.37552C85.3388 3.98714 85.8584 3.70618 86.4148 3.53264C86.9713 3.35911 87.4909 3.27234 87.9696 3.27234H98.0917V6.27614H87.9696C87.4049 6.27614 86.9631 6.44968 86.648 6.79674C86.333 7.14381 86.1734 7.60244 86.1734 8.17263C86.1734 8.74281 86.333 9.20557 86.648 9.54024C86.9631 9.87492 87.4049 10.0443 87.9696 10.0443H94.8309C95.15 10.0526 95.4896 10.098 95.8496 10.1765C96.2097 10.2592 96.5656 10.3831 96.9175 10.5525C97.2735 10.7219 97.609 10.9368 97.9281 11.193C98.2472 11.4533 98.5336 11.759 98.7791 12.1226C99.0287 12.4862 99.2251 12.8994 99.3683 13.3704C99.5115 13.8414 99.5851 14.3703 99.5851 14.9653L99.5933 14.957Z" fill="white"/>
<path d="M116.712 6.27199H110.157V19.8325H107.183V6.27199H100.62V3.26819H116.712V6.27199Z" fill="white"/>
<path d="M128.659 3.84668V5.53658C128.659 9.67662 127.57 12.6969 125.394 14.5976C123.855 15.9569 121.879 16.6924 119.457 16.8081V14.5976C121.777 14.5191 123.524 13.6844 124.702 12.0937C125.815 10.5939 126.376 8.51146 126.376 5.84646H119.707V3.84668H128.659ZM132.308 8.89158V3.84668H134.554V20.2622H132.308V10.8914H127.178V8.89158H132.308Z" fill="white"/>
<path d="M143.331 5.84646H137.95V3.84668H145.462V10.9657H140.062V14.5562H147.479V16.556H139.297C138.846 16.556 138.515 16.4445 138.298 16.2255C138.069 15.9941 137.95 15.5975 137.95 15.0438V8.99074H143.331V5.84646ZM150.92 11.0856H149.153V20.2622H147.078V3.84668H149.153V9.08577H150.92V3.84668H153.052V20.2622H150.92V11.0856Z" fill="white"/>
<path d="M29.4583 3.30542H11.907L8.59204 0H26.1286L29.4583 3.30542Z" fill="#B1AFCE"/>
<path d="M11.9556 8.67673H0L8.50145 0H20.4571L11.9556 8.67673Z" fill="white"/>
<path d="M8.47785 16.8969L0 8.67676H11.9643L20.4571 16.9403L8.47785 16.8969Z" fill="#D6DBEF"/>
<path d="M11.0469 19.8325H28.5888L31.9131 23.1379H14.3861L11.0469 19.8325Z" fill="#8F96CA"/>
<path d="M28.5493 14.4612H40.5049L32.0035 23.1379H20.0479L28.5493 14.4612Z" fill="#BBBDDF"/>
<path d="M32.0358 5.83013L40.5049 14.4613L28.517 14.4157L20.0479 5.78455L32.0358 5.83013Z" fill="#D6DBEF"/>
</svg>
